<?xml version="1.0" encoding="UTF-8"?> <svg xmlns="http://www.w3.org/2000/svg" width="216" height="80" viewBox="0 0 216 80" fill="none"> <path d="M216 0H0V80H216V0Z" fill="#AB182D"></path> <path d="M55.7627 48.1529C57.0151 45.2651 59.9072 37.7028 60.3847 36.1416C60.4928 35.8167 60.5829 35.5189 60.5829 35.3294C60.5829 35.1399 60.5199 34.9233 60.2946 34.8241C60.0424 34.7338 59.727 34.7338 59.4838 34.7338C59.3486 34.7338 59.2405 34.7158 59.2405 34.5985C59.2405 34.4811 59.3756 34.427 59.727 34.427C60.5829 34.427 61.583 34.4811 61.8443 34.4811C61.9704 34.4811 62.8985 34.427 63.5291 34.427C63.7544 34.427 63.8895 34.4721 63.8895 34.5714C63.8895 34.6797 63.7994 34.7248 63.6373 34.7248C63.4751 34.7248 63.0066 34.7248 62.5921 34.9955C62.3218 35.1941 61.9885 35.546 61.4028 37.026C61.1686 37.6306 60.0964 40.2206 58.9972 42.8827C57.6728 46.0412 56.6997 48.3875 56.1952 49.4343C55.6005 50.7338 55.5195 51.0858 55.3032 51.0858C55.0419 51.0858 54.9428 50.788 54.5194 49.7411L49.2216 36.4665C48.7441 35.2662 48.4198 35.0226 47.672 34.806C47.3386 34.7158 46.9782 34.7158 46.8431 34.7158C46.7079 34.7158 46.6719 34.6436 46.6719 34.5624C46.6719 34.427 46.8971 34.418 47.2395 34.418C48.2756 34.418 49.51 34.4721 49.7712 34.4721C49.9785 34.4721 50.9605 34.418 51.7714 34.418C52.1678 34.418 52.357 34.4631 52.357 34.5624C52.357 34.6706 52.294 34.7158 52.1318 34.7158C51.9065 34.7158 51.5101 34.7338 51.3209 34.8241C51.0867 34.9414 51.0416 35.1038 51.0416 35.2663C51.0416 35.537 51.2939 36.2048 51.6092 37.0531L55.7717 48.1348L55.7627 48.1529Z" fill="white"></path> <path d="M69.2039 44.5168C69.2039 46.6015 69.2039 48.3161 69.303 49.2185C69.3661 49.8502 69.5012 50.3194 70.1409 50.4007C70.4562 50.4458 70.9248 50.4819 71.114 50.4819C71.2581 50.4819 71.2851 50.5541 71.2851 50.6082C71.2851 50.7255 71.186 50.7887 70.9518 50.7887C69.7535 50.7887 68.384 50.7165 68.2849 50.7165C68.1678 50.7165 66.8073 50.7887 66.1586 50.7887C65.9243 50.7887 65.8072 50.7436 65.8072 50.6082C65.8072 50.5541 65.8523 50.4819 65.9784 50.4819C66.1766 50.4819 66.4379 50.4368 66.6361 50.4007C67.0686 50.3104 67.1677 49.8412 67.2578 49.2185C67.3569 48.307 67.3569 46.5924 67.3569 44.5168V40.7086C67.3569 37.3335 67.3569 36.7199 67.3118 36.0341C67.2758 35.2941 67.0596 34.9241 66.582 34.8248C66.3478 34.7526 66.0595 34.7346 65.9153 34.7346C65.8252 34.7346 65.7441 34.6894 65.7441 34.5992C65.7441 34.4819 65.8432 34.4277 66.1045 34.4277C66.8073 34.4277 68.1588 34.4819 68.2759 34.4819C68.375 34.4819 69.7445 34.4277 70.3842 34.4277C70.6184 34.4277 70.7355 34.4729 70.7355 34.5992C70.7355 34.6894 70.6364 34.7346 70.5644 34.7346C70.4112 34.7346 70.2851 34.7526 70.0148 34.7977C69.4381 34.915 69.267 35.285 69.2219 36.0341C69.1859 36.7199 69.1859 37.3335 69.1859 40.7086V44.5168H69.2039Z" fill="white"></path> <path d="M78.1054 44.5525C78.1054 47.738 78.1864 49.1187 78.5829 49.5158C78.9162 49.8587 79.4748 50.0121 81.1687 50.0121C82.3219 50.0121 83.2679 49.9941 83.7815 49.3624C84.0608 49.0105 84.277 48.469 84.3401 48.0629C84.3761 47.8914 84.4122 47.7832 84.5383 47.7832C84.6374 47.7832 84.6645 47.8734 84.6645 48.108C84.6645 48.3607 84.5203 49.6512 84.3401 50.2919C84.196 50.7792 84.1329 50.8785 82.9796 50.8785C81.4209 50.8785 80.3127 50.8243 79.3938 50.8063C78.4838 50.7612 77.817 50.7341 77.1864 50.7341C77.0963 50.7341 76.7359 50.7612 76.3034 50.7612C75.8709 50.7792 75.3934 50.8063 75.0691 50.8063C74.8348 50.8063 74.7267 50.7612 74.7267 50.6258C74.7267 50.5717 74.7717 50.4995 74.8889 50.4995C75.0871 50.4995 75.3484 50.4543 75.5466 50.4182C75.979 50.328 76.0872 49.8587 76.1683 49.2361C76.2764 48.3246 76.2764 46.61 76.2764 44.5344V40.7262C76.2764 37.3511 76.2764 36.7375 76.2403 36.0516C76.1953 35.3116 76.0151 34.9687 75.3033 34.8153C75.1321 34.7702 74.7627 34.7521 74.5555 34.7521C74.4834 34.7521 74.4023 34.707 74.4023 34.6168C74.4023 34.4995 74.5014 34.4453 74.7357 34.4453C75.7178 34.4453 77.0692 34.4995 77.1774 34.4995C77.2765 34.4995 78.8622 34.4453 79.5109 34.4453C79.7451 34.4453 79.8623 34.4904 79.8623 34.6168C79.8623 34.707 79.7722 34.7521 79.6911 34.7521C79.5469 34.7521 79.2316 34.7702 78.9703 34.8153C78.3486 34.9326 78.1684 35.3026 78.1324 36.0516C78.0873 36.7375 78.0873 37.3511 78.0873 40.7262V44.5796L78.1054 44.5525Z" fill="white"></path> <path d="M90.3327 44.5525C90.3327 47.738 90.4138 49.1187 90.8102 49.5158C91.1526 49.8587 91.7022 50.0121 93.396 50.0121C94.5312 50.0121 95.4953 49.9941 96.0178 49.3624C96.2881 49.0105 96.5134 48.469 96.5764 48.0629C96.5945 47.8914 96.6395 47.7832 96.7747 47.7832C96.8738 47.7832 96.8918 47.8734 96.8918 48.108C96.8918 48.3607 96.7476 49.6512 96.5764 50.2919C96.4323 50.7792 96.3782 50.8785 95.216 50.8785C93.6573 50.8785 92.5491 50.8243 91.6301 50.8063C90.7201 50.7612 90.0624 50.7341 89.4227 50.7341C89.3416 50.7341 88.9632 50.7612 88.5307 50.7612C88.1073 50.7792 87.6297 50.8063 87.3054 50.8063C87.0711 50.8063 86.963 50.7612 86.963 50.6258C86.963 50.5717 86.9991 50.4995 87.1342 50.4995C87.3414 50.4995 87.5937 50.4543 87.7919 50.4182C88.2244 50.328 88.3325 49.8587 88.4136 49.2361C88.5217 48.3246 88.5217 46.61 88.5217 44.5344V40.7262C88.5217 37.3511 88.5217 36.7375 88.4767 36.0516C88.4406 35.3116 88.2604 34.9687 87.5396 34.8153C87.3685 34.7702 86.9991 34.7521 86.8099 34.7521C86.7198 34.7521 86.6387 34.707 86.6387 34.6168C86.6387 34.4995 86.7378 34.4453 86.981 34.4453C87.9541 34.4453 89.3146 34.4995 89.4227 34.4995C89.5308 34.4995 91.1075 34.4453 91.7472 34.4453C91.9995 34.4453 92.0986 34.4904 92.0986 34.6168C92.0986 34.707 91.9995 34.7521 91.9274 34.7521C91.7742 34.7521 91.4679 34.7702 91.2156 34.8153C90.5849 34.9326 90.4047 35.3026 90.3777 36.0516C90.3237 36.7375 90.3237 37.3511 90.3237 40.7262V44.5796L90.3327 44.5525Z" fill="white"></path> <path d="M105.838 34.9772C106.09 34.2552 106.171 34.1289 106.307 34.1289C106.451 34.1289 106.532 34.2372 106.793 34.905C107.108 35.7262 110.514 44.6692 111.83 47.9541C112.604 49.8853 113.244 50.2372 113.695 50.3545C114.019 50.4718 114.325 50.4809 114.55 50.4809C114.686 50.4809 114.767 50.5079 114.767 50.6072C114.767 50.7426 114.578 50.7877 114.334 50.7877C114.019 50.7877 112.433 50.7877 110.938 50.7426C110.55 50.7155 110.307 50.7155 110.307 50.5891C110.307 50.4989 110.37 50.4628 110.451 50.4357C110.577 50.3906 110.721 50.2011 110.577 49.8582L108.568 44.5339C108.523 44.4527 108.487 44.4075 108.37 44.4075H103.73C103.631 44.4075 103.568 44.4617 103.514 44.57L102.216 48.4143C102.018 48.9467 101.91 49.4611 101.91 49.8582C101.91 50.2913 102.369 50.4809 102.739 50.4809H102.946C103.099 50.4809 103.171 50.526 103.171 50.6072C103.171 50.7426 103.036 50.7877 102.847 50.7877C102.324 50.7877 101.396 50.7155 101.162 50.7155C100.928 50.7155 99.7204 50.7877 98.7113 50.7877C98.423 50.7877 98.2969 50.7426 98.2969 50.6072C98.2969 50.526 98.396 50.4809 98.4951 50.4809C98.6392 50.4809 98.9546 50.4628 99.1258 50.4357C100.117 50.3094 100.549 49.4882 100.937 48.4143L105.838 34.9682V34.9772ZM108.081 43.6405C108.181 43.6405 108.181 43.5683 108.163 43.4871L106.117 37.6393C106.009 37.3054 105.901 37.3054 105.784 37.6393L103.892 43.4871C103.865 43.5773 103.892 43.6405 103.955 43.6405H108.081Z" fill="white"></path> <path d="M126.38 45.2856C126.38 43.5349 126.272 43.2912 125.416 43.0566C125.227 43.0024 124.876 42.9934 124.678 42.9934C124.578 42.9934 124.497 42.9483 124.497 42.8671C124.497 42.7317 124.597 42.6866 124.849 42.6866C125.831 42.6866 127.182 42.7498 127.299 42.7498C127.399 42.7498 128.768 42.6866 129.408 42.6866C129.66 42.6866 129.75 42.7317 129.75 42.8671C129.75 42.9483 129.669 42.9934 129.588 42.9934C129.426 42.9934 129.309 43.0115 129.038 43.0566C128.453 43.1559 128.281 43.5349 128.245 44.2929C128.2 44.9878 128.2 45.6375 128.2 46.5399V48.9675C128.2 49.9421 128.164 49.9962 127.912 50.1406C126.534 50.8806 124.578 51.1062 123.335 51.1062C121.686 51.1062 118.623 50.8896 116.217 48.787C114.893 47.6499 113.641 45.3217 113.641 42.6234C113.641 39.1581 115.316 36.7125 117.254 35.4943C119.2 34.294 121.326 34.1406 122.993 34.1406C124.353 34.1406 125.903 34.4204 126.299 34.5016C126.75 34.6189 127.516 34.7092 128.065 34.7272C128.272 34.7452 128.318 34.8355 128.318 34.9257C128.318 35.2326 128.164 35.8372 128.164 37.994C128.164 38.3459 128.128 38.4452 127.975 38.4452C127.858 38.4452 127.84 38.3189 127.822 38.1203C127.795 37.8225 127.687 37.2179 127.362 36.6945C126.831 35.8643 125.074 34.9348 122.29 34.9348C120.921 34.9348 119.29 35.0791 117.65 36.3696C116.398 37.3623 115.533 39.3386 115.533 41.8744C115.533 44.9156 117.046 47.1355 117.812 47.8665C119.506 49.536 121.479 50.1857 123.461 50.1857C124.245 50.1857 125.371 50.0414 125.939 49.7255C126.209 49.5721 126.371 49.3284 126.371 48.9675V45.2856H126.38Z" fill="white"></path> <path d="M134.796 44.5168C134.796 46.6015 134.796 48.3161 134.904 49.2185C134.967 49.8502 135.093 50.3194 135.733 50.4007C136.03 50.4458 136.517 50.4819 136.697 50.4819C136.832 50.4819 136.886 50.5541 136.886 50.6082C136.886 50.7255 136.76 50.7887 136.535 50.7887C135.336 50.7887 133.976 50.7165 133.868 50.7165C133.76 50.7165 132.417 50.7887 131.75 50.7887C131.507 50.7887 131.408 50.7436 131.408 50.6082C131.408 50.5541 131.444 50.4819 131.579 50.4819C131.759 50.4819 132.039 50.4368 132.228 50.4007C132.66 50.3104 132.768 49.8412 132.85 49.2185C132.949 48.307 132.949 46.5924 132.949 44.5168V40.7086C132.949 37.3335 132.949 36.7199 132.904 36.0341C132.868 35.2941 132.651 34.9241 132.183 34.8248C131.931 34.7526 131.66 34.7346 131.507 34.7346C131.426 34.7346 131.336 34.6894 131.336 34.5992C131.336 34.4819 131.444 34.4277 131.687 34.4277C132.417 34.4277 133.76 34.4819 133.868 34.4819C133.976 34.4819 135.336 34.4277 135.976 34.4277C136.228 34.4277 136.318 34.4729 136.318 34.5992C136.318 34.6894 136.237 34.7346 136.156 34.7346C135.994 34.7346 135.877 34.7526 135.616 34.7977C135.039 34.915 134.859 35.285 134.814 36.0341C134.778 36.7199 134.778 37.3335 134.778 40.7086V44.5168H134.796Z" fill="white"></path> <path d="M146.183 34.1301C151.057 34.1301 154.688 37.2074 154.688 42.2429C154.688 47.2785 151.273 51.0957 146.066 51.0957C140.146 51.0957 137.678 46.4843 137.678 42.5768C137.678 39.0664 140.227 34.1211 146.183 34.1211V34.1301ZM146.642 50.2835C148.589 50.2835 152.625 49.1465 152.625 42.8566C152.625 37.6586 149.463 34.8701 146.048 34.8701C142.435 34.8701 139.723 37.2435 139.723 41.9812C139.723 47.0258 142.759 50.2926 146.642 50.2926V50.2835Z" fill="white"></path> <path d="M88.4023 16.5781L98.8447 27.0553L99.4663 26.4416L89.6277 16.5781H88.4023Z" fill="white"></path> <path d="M104.676 16.5781H103.432L99.5762 20.4405L100.189 21.0632L104.676 16.5781Z" fill="white"></path> <path d="M101.378 22.2454L107.027 16.5781H105.792L100.756 21.6317L101.378 22.2454Z" fill="white"></path> <path d="M90.7461 16.5781L100.071 25.9182L100.684 25.2956L91.9894 16.5781H90.7461Z" fill="white"></path> <path d="M108.081 16.5781L101.9 22.7778L102.513 23.3914L109.315 16.5781H108.081Z" fill="white"></path> <path d="M93.2344 16.5781L101.28 24.6278L101.902 24.0141L94.4777 16.5781H93.2344Z" fill="white"></path> <path d="M85.9991 59.995C85.9991 58.894 85.9991 58.6774 85.972 58.4518C85.963 58.2082 85.918 58.0908 85.6837 58.0457C85.6116 58.0457 85.4855 58.0457 85.4224 58.0457C85.3954 58.0457 85.3594 58.0096 85.3594 57.9825C85.3594 57.9374 85.3954 57.9194 85.4765 57.9194C85.8099 57.9194 86.2874 57.9284 86.3414 57.9284C86.3955 57.9284 87.9362 57.9465 88.0983 57.9284C88.2425 57.9284 88.3776 57.9104 88.4407 57.9013C88.4587 57.9013 88.5038 57.8652 88.5398 57.8652C88.5668 57.8652 88.5669 57.9013 88.5669 57.9284C88.5669 57.9825 88.5398 58.0457 88.5128 58.2713C88.5128 58.3345 88.4948 58.6594 88.4677 58.7406C88.4587 58.7767 88.4497 58.8128 88.4047 58.8128C88.3686 58.8128 88.3416 58.7857 88.3416 58.7316C88.3416 58.6684 88.3416 58.5601 88.2966 58.4699C88.2515 58.3525 88.1794 58.3074 87.774 58.2443C87.6479 58.2443 86.7829 58.2262 86.7108 58.2262C86.6658 58.2262 86.6658 58.2443 86.6658 58.3074V60.2476C86.6658 60.2476 86.6658 60.3198 86.7108 60.3198C86.7829 60.3198 87.774 60.3198 87.9362 60.3018C88.1164 60.2837 88.2245 60.2837 88.2966 60.2025C88.3506 60.1574 88.3867 60.1123 88.4137 60.1123C88.4497 60.1123 88.4497 60.1213 88.4497 60.1664C88.4497 60.2115 88.4137 60.3289 88.3957 60.5635C88.3776 60.7079 88.3596 60.9786 88.3596 61.0327C88.3596 61.0869 88.3416 61.1681 88.2966 61.1681C88.2605 61.1681 88.2425 61.141 88.2425 61.1049C88.2425 61.0327 88.2425 60.9696 88.1975 60.8613C88.1975 60.762 88.1164 60.6808 87.8281 60.6357C87.6208 60.6176 86.837 60.6086 86.7199 60.6086C86.6658 60.6086 86.6658 60.6357 86.6658 60.6628V61.2583C86.6658 61.502 86.6658 62.3413 86.6658 62.4856C86.6658 62.973 86.819 63.0542 87.5397 63.0542C87.747 63.0542 88.0983 63.0542 88.2875 62.973C88.4768 62.8917 88.5849 62.7654 88.6299 62.4856C88.6389 62.4044 88.657 62.3683 88.693 62.3683C88.729 62.3683 88.747 62.4225 88.747 62.4856C88.747 62.5308 88.693 63.0271 88.6389 63.1715C88.6029 63.352 88.5218 63.352 88.2425 63.352C87.6839 63.352 87.2424 63.343 86.9541 63.3339C86.6478 63.3069 86.4496 63.3069 86.3414 63.3069C86.3324 63.3069 86.1703 63.3069 86.0261 63.3249C85.8729 63.3249 85.7108 63.3249 85.5846 63.3249C85.5125 63.3249 85.4675 63.3249 85.4675 63.2527C85.4675 63.2347 85.4765 63.1895 85.5216 63.1895C85.5846 63.1895 85.6927 63.1715 85.7468 63.1625C85.9 63.1444 85.909 63.0091 85.945 62.7834C85.9991 62.5127 85.9991 61.9352 85.9991 61.2403V59.9859V59.995Z" fill="white"></path> <path d="M89.9987 63.2349C89.8996 63.1717 89.8906 63.1627 89.8906 62.9732C89.8906 62.6122 89.9267 62.3324 89.9357 62.2151C89.9357 62.1339 89.9537 62.0888 89.9987 62.0888C90.0348 62.0888 90.0618 62.1159 90.0618 62.17C90.0618 62.2241 90.0618 62.3415 90.0798 62.4407C90.197 62.9732 90.7466 63.1536 91.2421 63.1536C91.9809 63.1536 92.3503 62.7295 92.3503 62.1971C92.3503 61.6646 92.071 61.439 91.4223 60.9517L91.0889 60.69C90.2961 60.1034 90.0348 59.6703 90.0348 59.1559C90.0348 58.3347 90.6925 57.8203 91.6655 57.8203C91.9629 57.8203 92.2602 57.8654 92.4404 57.9106C92.5755 57.9376 92.6296 57.9376 92.6927 57.9376C92.7557 57.9376 92.7647 57.9376 92.7647 57.9918C92.7647 58.0279 92.7467 58.2535 92.7467 58.7498C92.7467 58.8581 92.7287 58.9122 92.6837 58.9122C92.6296 58.9122 92.6296 58.8762 92.6026 58.822C92.6026 58.7408 92.5395 58.5513 92.5035 58.461C92.4404 58.3708 92.2061 58.1001 91.5574 58.1001C91.0078 58.1001 90.5574 58.3618 90.5574 58.8761C90.5574 59.3364 90.7916 59.5981 91.5124 60.0944L91.7196 60.2298C92.6296 60.8525 92.9359 61.3398 92.9359 61.9624C92.9359 62.3776 92.7737 62.8378 92.2422 63.1717C91.9358 63.3793 91.4763 63.4244 91.0619 63.4244C90.7195 63.4244 90.2871 63.3793 89.9897 63.2349H89.9987Z" fill="white"></path> <path d="M96.6311 61.2488C96.6311 61.9437 96.6311 62.5212 96.6581 62.7919C96.6852 63.0175 96.7212 63.1439 96.9464 63.171C97.0455 63.198 97.2167 63.198 97.2888 63.198C97.3249 63.198 97.3248 63.2341 97.3248 63.2612C97.3248 63.3063 97.3158 63.3334 97.2167 63.3334C96.8113 63.3334 96.3428 63.3063 96.3067 63.3063C96.2707 63.3063 95.7572 63.3334 95.5409 63.3334C95.4508 63.3334 95.4238 63.3334 95.4238 63.2612C95.4238 63.2431 95.4328 63.2161 95.4869 63.2161C95.5589 63.2161 95.631 63.198 95.6851 63.189C95.8382 63.1529 95.8923 63.0175 95.9193 62.7919C95.9554 62.5212 95.9554 61.9437 95.9554 61.2488V58.2347L94.8742 58.2618C94.4147 58.2708 94.2435 58.3159 94.1264 58.4783C94.0633 58.6047 94.0453 58.6588 94.0183 58.722C94.0093 58.7761 93.9822 58.7761 93.9552 58.7761C93.9372 58.7761 93.9102 58.7761 93.9102 58.722C93.9102 58.6498 94.0543 58.0091 94.0723 57.9459C94.0813 57.9008 94.1174 57.8105 94.1354 57.8105C94.1895 57.8105 94.2615 57.8557 94.4688 57.9008C94.676 57.9188 94.9463 57.9188 95.0454 57.9188H97.8294C98.0907 57.9188 98.2529 57.9098 98.37 57.9008C98.4781 57.8827 98.5412 57.8557 98.5772 57.8557C98.6133 57.8557 98.6132 57.9008 98.6132 57.9459C98.6132 58.1625 98.5952 58.6859 98.5952 58.7671C98.5952 58.8303 98.5502 58.8574 98.5231 58.8574C98.4781 58.8574 98.4691 58.8303 98.4421 58.731V58.6588C98.415 58.4422 98.2619 58.2798 97.5591 58.2618L96.6401 58.2347V61.2488H96.6311Z" fill="white"></path> <path d="M100.911 58.0449C101.01 57.8283 101.055 57.7832 101.091 57.7832C101.172 57.7832 101.181 57.8915 101.271 58.0359C101.397 58.3517 102.595 61.2936 103.046 62.3946C103.316 63.0263 103.505 63.1165 103.668 63.1707C103.794 63.2068 103.902 63.2068 103.974 63.2068C104.001 63.2068 104.055 63.2339 104.055 63.27C104.055 63.3331 103.983 63.3421 103.893 63.3421C103.785 63.3421 103.235 63.3421 102.722 63.3421C102.586 63.3241 102.451 63.3241 102.451 63.279C102.451 63.2429 102.469 63.2429 102.505 63.2158C102.55 63.2158 102.622 63.1526 102.586 63.0443L101.911 61.3839C101.911 61.3839 101.893 61.3478 101.83 61.3478H100.136C100.136 61.3478 100.082 61.3658 100.064 61.4019L99.6402 62.557C99.5771 62.7285 99.5411 62.909 99.5411 63.0443C99.5411 63.1797 99.6672 63.2158 99.7844 63.2158H99.8474C99.8474 63.2158 99.9195 63.2429 99.9195 63.279C99.9195 63.3421 99.8655 63.3512 99.8024 63.3512C99.6312 63.3512 99.2258 63.3241 99.1447 63.3241C99.0636 63.3241 98.6942 63.3512 98.3969 63.3512C98.2978 63.3512 98.2617 63.3512 98.2617 63.279C98.2617 63.2429 98.2887 63.2158 98.3338 63.2158C98.3788 63.2158 98.478 63.2158 98.55 63.2158C98.8744 63.1797 99.0366 62.918 99.1717 62.557L100.902 58.063L100.911 58.0449ZM101.73 61.041C101.73 61.041 101.776 61.0229 101.767 60.9778L101.046 59.0286C100.983 58.9203 100.938 58.9203 100.902 59.0286L100.208 60.9778C100.208 61.0229 100.208 61.041 100.235 61.041H101.721H101.73Z" fill="white"></path> <path d="M106.098 61.2488C106.098 61.9437 106.098 62.5212 106.143 62.7919C106.161 63.0175 106.197 63.1439 106.423 63.171C106.522 63.198 106.693 63.198 106.756 63.198C106.801 63.198 106.801 63.2341 106.801 63.2612C106.801 63.3063 106.783 63.3334 106.684 63.3334C106.288 63.3334 105.801 63.3063 105.774 63.3063C105.738 63.3063 105.224 63.3334 105.017 63.3334C104.918 63.3334 104.891 63.3334 104.891 63.2612C104.891 63.2431 104.909 63.2161 104.954 63.2161C105.008 63.2161 105.089 63.198 105.161 63.189C105.305 63.1529 105.351 63.0175 105.378 62.7919C105.405 62.5212 105.405 61.9437 105.405 61.2488V58.2347L104.35 58.2618C103.891 58.2708 103.711 58.3159 103.603 58.4783C103.513 58.6047 103.504 58.6588 103.476 58.722C103.467 58.7761 103.449 58.7761 103.413 58.7761C103.404 58.7761 103.359 58.7761 103.359 58.722C103.359 58.6498 103.504 58.0091 103.504 57.9459C103.522 57.9008 103.567 57.8105 103.585 57.8105C103.621 57.8105 103.702 57.8557 103.918 57.9008C104.125 57.9188 104.414 57.9188 104.495 57.9188H107.288C107.513 57.9188 107.693 57.9098 107.819 57.9008C107.918 57.8827 107.981 57.8557 108.017 57.8557C108.044 57.8557 108.044 57.9008 108.044 57.9459C108.044 58.1625 108.017 58.6859 108.017 58.7671C108.017 58.8303 107.981 58.8574 107.945 58.8574C107.918 58.8574 107.909 58.8303 107.909 58.731L107.891 58.6588C107.873 58.4422 107.711 58.2798 106.999 58.2618L106.071 58.2347V61.2488H106.098Z" fill="white"></path> <path d="M109.621 59.993C109.621 58.892 109.621 58.6755 109.594 58.4499C109.567 58.2062 109.531 58.0889 109.297 58.0438C109.216 58.0438 109.099 58.0438 109.027 58.0438C109.027 58.0438 108.973 58.0077 108.973 57.9806C108.973 57.9355 109.018 57.9174 109.09 57.9174C109.432 57.9174 109.91 57.9265 109.955 57.9265C109.991 57.9265 111.549 57.9445 111.703 57.9265C111.838 57.9265 111.982 57.9084 112.036 57.8994C112.072 57.8994 112.126 57.8633 112.153 57.8633C112.189 57.8633 112.189 57.8994 112.189 57.9265C112.189 57.9806 112.144 58.0438 112.135 58.2694C112.135 58.3325 112.099 58.6574 112.081 58.7386C112.063 58.7747 112.045 58.8108 112.018 58.8108C111.982 58.8108 111.955 58.7838 111.955 58.7296C111.955 58.6664 111.955 58.5581 111.91 58.4679C111.856 58.3506 111.784 58.3055 111.378 58.2423C111.261 58.2423 110.405 58.2242 110.324 58.2242C110.288 58.2242 110.279 58.2423 110.279 58.3055V60.2457C110.279 60.2457 110.279 60.3179 110.324 60.3179C110.405 60.3179 111.378 60.3179 111.558 60.2998C111.73 60.2818 111.838 60.2818 111.91 60.2006C111.955 60.1554 112.009 60.1103 112.018 60.1103C112.036 60.1103 112.063 60.1193 112.063 60.1645C112.063 60.2096 112.018 60.3269 112.009 60.5615C111.991 60.7059 111.982 60.9766 111.982 61.0308C111.982 61.0849 111.964 61.1662 111.919 61.1662C111.883 61.1662 111.847 61.1391 111.847 61.103C111.847 61.0308 111.847 60.9676 111.82 60.8593C111.793 60.7601 111.73 60.6788 111.45 60.6337C111.252 60.6157 110.45 60.6067 110.351 60.6067C110.297 60.6067 110.288 60.6337 110.288 60.6608V61.2564C110.288 61.5 110.279 62.3393 110.288 62.4837C110.306 62.971 110.441 63.0522 111.18 63.0522C111.36 63.0522 111.703 63.0522 111.901 62.971C112.09 62.8898 112.207 62.7634 112.243 62.4837C112.252 62.4025 112.27 62.3664 112.315 62.3664C112.36 62.3664 112.378 62.4205 112.378 62.4837C112.378 62.5288 112.315 63.0252 112.279 63.1695C112.234 63.35 112.144 63.35 111.856 63.35C111.315 63.35 110.892 63.341 110.576 63.332C110.288 63.3049 110.081 63.3049 109.982 63.3049C109.964 63.3049 109.82 63.3049 109.657 63.3229C109.522 63.3229 109.342 63.3229 109.234 63.3229C109.153 63.3229 109.117 63.3229 109.117 63.2508C109.117 63.2327 109.135 63.1876 109.18 63.1876C109.243 63.1876 109.342 63.1695 109.405 63.1605C109.549 63.1425 109.558 63.0071 109.603 62.7815C109.657 62.5108 109.657 61.9332 109.657 61.2383V59.984L109.621 59.993Z" fill="white"></path> <path d="M42.418 27.442H95.1161L94.6385 26.8555H42.418V27.442Z" fill="url(#paint0_linear_166_411)"></path> <path d="M155.157 27.442H102.459L102.937 26.8555H155.157V27.442Z" fill="url(#paint1_linear_166_411)"></path> <defs> <linearGradient id="paint0_linear_166_411" x1="42.418" y1="27.1533" x2="95.1161" y2="27.1533" gradientUnits="userSpaceOnUse"> <stop stop-color="#AA182C"></stop> <stop offset="0.04" stop-color="#B12C3E"></stop> <stop offset="0.13" stop-color="#C35D6B"></stop> <stop offset="0.23" stop-color="#D38892"></stop> <stop offset="0.34" stop-color="#E0ADB4"></stop> <stop offset="0.45" stop-color="#EBCACF"></stop> <stop offset="0.56" stop-color="#F4E1E4"></stop> <stop offset="0.68" stop-color="#FAF2F3"></stop> <stop offset="0.82" stop-color="#FDFBFC"></stop> <stop offset="1" stop-color="white"></stop> </linearGradient> <linearGradient id="paint1_linear_166_411" x1="155.157" y1="-0.000690522" x2="102.459" y2="-0.000690522" gradientUnits="userSpaceOnUse"> <stop stop-color="#AA182C"></stop> <stop offset="0.04" stop-color="#B12C3E"></stop> <stop offset="0.13" stop-color="#C35D6B"></stop> <stop offset="0.23" stop-color="#D38892"></stop> <stop offset="0.34" stop-color="#E0ADB4"></stop> <stop offset="0.45" stop-color="#EBCACF"></stop> <stop offset="0.56" stop-color="#F4E1E4"></stop> <stop offset="0.68" stop-color="#FAF2F3"></stop> <stop offset="0.82" stop-color="#FDFBFC"></stop> <stop offset="1" stop-color="white"></stop> </linearGradient> </defs> </svg> 